<svg xmlns="http://www.w3.org/2000/svg" width="91.998" height="106.922" viewBox="0 0 91.998 106.922"><path d="M39.317,84.46H32.036V63.128A26.33,26.33,0,0,0,52.314,35.067l-2.9-32.419A2.888,2.888,0,0,0,46.551,0H5.872A2.886,2.886,0,0,0,3.014,2.648L.109,35.069A26.33,26.33,0,0,0,20.387,63.13V84.46H13.106a7.281,7.281,0,0,0-7.281,7.281A1.456,1.456,0,0,0,7.281,93.2H45.142A1.456,1.456,0,0,0,46.6,91.741,7.281,7.281,0,0,0,39.317,84.46ZM11.24,8.737H41.183L42.488,23.3H9.935Z" transform="translate(46.598 0) rotate(30)" fill="#db5353" opacity="0.15"/></svg>