<svg xmlns="http://www.w3.org/2000/svg" width="67" height="67" viewBox="0 0 67 67"><path d="M20.79.02a4.316,4.316,0,0,0-4.623,3.156L14.228,10.54c24.553.718,41.162,17.092,42.2,41.484l7.451-2.065a4.318,4.318,0,0,0,3.091-4.7C64.239,21.6,44.6,2.267,20.79.02ZM13.138,14.677.071,64.339a2.121,2.121,0,0,0,2.617,2.585l49.6-13.754c-.559-22.887-16.107-38.231-39.148-38.487ZM16.75,54.44a4.188,4.188,0,1,1,4.188-4.188A4.188,4.188,0,0,1,16.75,54.44Zm6.282-19.891a4.188,4.188,0,1,1,4.188-4.188A4.188,4.188,0,0,1,23.031,34.548Zm13.61,13.61a4.188,4.188,0,1,1,4.188-4.188A4.188,4.188,0,0,1,36.641,48.158Z" transform="translate(-0.001 0)" fill="#ffd639" opacity="0.15"/></svg>