<svg xmlns="http://www.w3.org/2000/svg" width="83.905" height="86.957" viewBox="0 0 83.905 86.957"><path d="M60.455,31.435H6.254a6.254,6.254,0,1,0,0,12.508h54.2a6.254,6.254,0,1,0,0-12.508ZM62.54,48.112H4.169A2.085,2.085,0,0,0,2.085,50.2v2.085a8.339,8.339,0,0,0,8.339,8.339H56.286a8.339,8.339,0,0,0,8.339-8.339V50.2A2.085,2.085,0,0,0,62.54,48.112ZM7.64,27.266H59.069c4.5,0,7.117-5.72,4.537-9.886C58.37,8.921,46.846,2.263,33.355,2.25,19.864,2.263,8.339,8.921,3.1,17.378.521,21.545,3.136,27.266,7.64,27.266ZM50.032,12.673a2.085,2.085,0,1,1-2.085,2.085A2.085,2.085,0,0,1,50.032,12.673ZM33.355,8.5a2.085,2.085,0,1,1-2.085,2.085A2.085,2.085,0,0,1,33.355,8.5ZM16.677,12.673a2.085,2.085,0,1,1-2.085,2.085A2.085,2.085,0,0,1,16.677,12.673Z" transform="translate(52.499 -1.125) rotate(60)" fill="#fb7e00" opacity="0.15"/></svg>