<svg xmlns="http://www.w3.org/2000/svg" width="60px" height="200px" viewBox="55 0 60 200">
  <g id="Icon_ionic-ios-restaurant" data-name="Icon ionic-ios-restaurant" transform="translate(-7.875 -4.5)">
     <path id="Path_2" data-name="Path 2" d="M50.326,4.5l5.4,54.167a4.325,4.325,0,0,1-8.644,0L43.843,4.5H39.521L36.28,58.667a4.325,4.325,0,0,1-8.644,0L33.038,4.5H28.716S15.75,60.333,15.75,71.167A25.13,25.13,0,0,0,33.038,94.708V196.167a8.65,8.65,0,0,0,17.288,0V94.708A25.03,25.03,0,0,0,67.614,71.167C67.614,60.229,54.648,4.5,54.648,4.5Z" transform="translate(49.371 0)" fill="#fb7e00"/>
  </g>
</svg>
