<svg xmlns="http://www.w3.org/2000/svg" width="1029.872" height="888.576" viewBox="0 0 1029.872 888.576"><g transform="translate(-858.094 -187)"><path d="M92.8,24.417l-7.565,59.3H59.682l-7.535-59.6h31.2l6.166-21.3L93,3.878,87.088,24.373l5.712.044ZM48.534,58.727s.956-7.69-12.295-7.69h-21.1c-13.231,0-12.295,7.69-12.295,7.69H48.534ZM2.843,76.03s-.936,7.69,12.295,7.69h21.1c13.25,0,12.295-7.69,12.295-7.69H2.843Zm43.71-3.845c2.169,0,3.92-2.142,3.92-4.8,0-2.678-1.751-4.808-3.92-4.808H4.642C2.483,62.572.72,64.7.72,67.381c0,2.663,1.763,4.8,3.922,4.8h41.91Z" transform="translate(1779.604 681.214) rotate(-72)" fill="#fbaf00" opacity="0.15"/><path d="M20.79.02a4.316,4.316,0,0,0-4.623,3.156L14.228,10.54c24.553.718,41.162,17.092,42.2,41.484l7.451-2.065a4.318,4.318,0,0,0,3.091-4.7C64.239,21.6,44.6,2.267,20.79.02ZM13.138,14.677.071,64.339a2.121,2.121,0,0,0,2.617,2.585l49.6-13.754c-.559-22.887-16.107-38.231-39.148-38.487ZM16.75,54.44a4.188,4.188,0,1,1,4.188-4.188A4.188,4.188,0,0,1,16.75,54.44Zm6.282-19.891a4.188,4.188,0,1,1,4.188-4.188A4.188,4.188,0,0,1,23.031,34.548Zm13.61,13.61a4.188,4.188,0,1,1,4.188-4.188A4.188,4.188,0,0,1,36.641,48.158Z" transform="translate(1515.999 187)" fill="#ffd639" opacity="0.15"/><path d="M60.455,31.435H6.254a6.254,6.254,0,1,0,0,12.508h54.2a6.254,6.254,0,1,0,0-12.508ZM62.54,48.112H4.169A2.085,2.085,0,0,0,2.085,50.2v2.085a8.339,8.339,0,0,0,8.339,8.339H56.286a8.339,8.339,0,0,0,8.339-8.339V50.2A2.085,2.085,0,0,0,62.54,48.112ZM7.64,27.266H59.069c4.5,0,7.117-5.72,4.537-9.886C58.37,8.921,46.846,2.263,33.355,2.25,19.864,2.263,8.339,8.921,3.1,17.378.521,21.545,3.136,27.266,7.64,27.266ZM50.032,12.673a2.085,2.085,0,1,1-2.085,2.085A2.085,2.085,0,0,1,50.032,12.673ZM33.355,8.5a2.085,2.085,0,1,1-2.085,2.085A2.085,2.085,0,0,1,33.355,8.5ZM16.677,12.673a2.085,2.085,0,1,1-2.085,2.085A2.085,2.085,0,0,1,16.677,12.673Z" transform="translate(947.202 442.332) rotate(60)" fill="#fb7e00" opacity="0.15"/><path d="M92.8,24.417l-7.565,59.3H59.682l-7.535-59.6h31.2l6.166-21.3L93,3.878,87.088,24.373l5.712.044ZM48.534,58.727s.956-7.69-12.295-7.69h-21.1c-13.231,0-12.295,7.69-12.295,7.69H48.534ZM2.843,76.03s-.936,7.69,12.295,7.69h21.1c13.25,0,12.295-7.69,12.295-7.69H2.843Zm43.71-3.845c2.169,0,3.92-2.142,3.92-4.8,0-2.678-1.751-4.808-3.92-4.808H4.642C2.483,62.572.72,64.7.72,67.381c0,2.663,1.763,4.8,3.922,4.8h41.91Z" transform="translate(899.331 922.329) rotate(30)" fill="#fbaf00" opacity="0.15"/><path d="M39.317,84.46H32.036V63.128A26.33,26.33,0,0,0,52.314,35.067l-2.9-32.419A2.888,2.888,0,0,0,46.551,0H5.872A2.886,2.886,0,0,0,3.014,2.648L.109,35.069A26.33,26.33,0,0,0,20.387,63.13V84.46H13.106a7.281,7.281,0,0,0-7.281,7.281A1.456,1.456,0,0,0,7.281,93.2H45.142A1.456,1.456,0,0,0,46.6,91.741,7.281,7.281,0,0,0,39.317,84.46ZM11.24,8.737H41.183L42.488,23.3H9.935Z" transform="translate(1550.398 750.373) rotate(30)" fill="#db5353" opacity="0.15"/><path d="M39.317,84.46H32.036V63.128A26.33,26.33,0,0,0,52.314,35.067l-2.9-32.419A2.888,2.888,0,0,0,46.551,0H5.872A2.886,2.886,0,0,0,3.014,2.648L.109,35.069A26.33,26.33,0,0,0,20.387,63.13V84.46H13.106a7.281,7.281,0,0,0-7.281,7.281A1.456,1.456,0,0,0,7.281,93.2H45.142A1.456,1.456,0,0,0,46.6,91.741,7.281,7.281,0,0,0,39.317,84.46ZM11.24,8.737H41.183L42.488,23.3H9.935Z" transform="translate(1030.265 484.709) rotate(-30)" fill="#db5353" opacity="0.15"/><path d="M35.188,42.86v23.5H16.008v7.193H62.04V66.356H42.86V42.86L73.548,12.172V4.5H4.5v7.672ZM21.762,19.844,14.09,12.172H63.958l-7.672,7.672Z" transform="matrix(-0.259, -0.966, 0.966, -0.259, 1459.001, 1081.087)" fill="#bfc540" opacity="0.15"/></g></svg>