<svg xmlns="http://www.w3.org/2000/svg" width="120.368" height="116.2" viewBox="0 0 120.368 116.2"><path d="M92.8,24.417l-7.565,59.3H59.682l-7.535-59.6h31.2l6.166-21.3L93,3.878,87.088,24.373l5.712.044ZM48.534,58.727s.956-7.69-12.295-7.69h-21.1c-13.231,0-12.295,7.69-12.295,7.69H48.534ZM2.843,76.03s-.936,7.69,12.295,7.69h21.1c13.25,0,12.295-7.69,12.295-7.69H2.843Zm43.71-3.845c2.169,0,3.92-2.142,3.92-4.8,0-2.678-1.751-4.808-3.92-4.808H4.642C2.483,62.572.72,64.7.72,67.381c0,2.663,1.763,4.8,3.922,4.8h41.91Z" transform="translate(41.237 -2.806) rotate(30)" fill="#fbaf00" opacity="0.15"/></svg>